<svg width="64" height="64" viewBox="0 0 64 64" fill="none" xmlns="http://www.w3.org/2000/svg">
<path d="M61 15H3V61H61V15Z" fill="#282c34" id="id_101"></path>
<path d="M13 3H61V51H37C30.6348 51 24.5303 48.4714 20.0294 43.9706C15.5286 39.4697 13 33.3652 13 27V3Z" fill="#282c34" id="id_102"></path>
<path d="M61 3H3V15H61V3Z" fill="#c4d1ee" id="id_103"></path>
<path d="M13 3H3V15H13V3Z" fill="#282c34" id="id_104"></path>
<path d="M57 7H32V11H57V7Z" fill="#282c34" id="id_105"></path>
<path d="M9 11C10.1046 11 11 10.1046 11 9C11 7.89543 10.1046 7 9 7C7.89543 7 7 7.89543 7 9C7 10.1046 7.89543 11 9 11Z" fill="#c4d1ee" id="id_106"></path>
<path d="M17 11C18.1046 11 19 10.1046 19 9C19 7.89543 18.1046 7 17 7C15.8954 7 15 7.89543 15 9C15 10.1046 15.8954 11 17 11Z" fill="#282c34" id="id_107"></path>
<path d="M25 11C26.1046 11 27 10.1046 27 9C27 7.89543 26.1046 7 25 7C23.8954 7 23 7.89543 23 9C23 10.1046 23.8954 11 25 11Z" fill="#282c34" id="id_108"></path>
<path d="M32.14 40.69L29.31 37.86C28.5601 37.1119 27.5442 36.6918 26.485 36.6918C25.4258 36.6918 24.4099 37.1119 23.66 37.86L16.59 44.93C16.2181 45.3015 15.923 45.7426 15.7217 46.2282C15.5205 46.7138 15.4168 47.2343 15.4168 47.76C15.4168 48.2857 15.5205 48.8062 15.7217 49.2918C15.923 49.7774 16.2181 50.2185 16.59 50.59L19.41 53.41C19.7815 53.7819 20.2226 54.0769 20.7082 54.2782C21.1938 54.4795 21.7143 54.5831 22.24 54.5831C22.7656 54.5831 23.2862 54.4795 23.7717 54.2782C24.2573 54.0769 24.6985 53.7819 25.07 53.41L32.14 46.34C32.888 45.5901 33.3081 44.5742 33.3081 43.515C33.3081 42.4558 32.888 41.4399 32.14 40.69ZM22.24 50.59L19.41 47.76L26.49 40.69L29.31 43.51L22.24 50.59Z" fill="#c4d1ee" id="id_109"></path>
<path d="M47.7 25.13L44.87 22.3C44.4985 21.9281 44.0574 21.6331 43.5718 21.4318C43.0862 21.2305 42.5657 21.1269 42.04 21.1269C41.5143 21.1269 40.9938 21.2305 40.5082 21.4318C40.0227 21.6331 39.5815 21.9281 39.21 22.3L32.14 29.37C31.7681 29.7415 31.4731 30.1827 31.2718 30.6682C31.0705 31.1538 30.9669 31.6743 30.9669 32.2C30.9669 32.7257 31.0705 33.2462 31.2718 33.7318C31.4731 34.2174 31.7681 34.6585 32.14 35.03L35 37.86C35.3715 38.2319 35.8126 38.5269 36.2982 38.7282C36.7838 38.9295 37.3043 39.0332 37.83 39.0332C38.3557 39.0332 38.8762 38.9295 39.3618 38.7282C39.8474 38.5269 40.2885 38.2319 40.66 37.86L47.73 30.79C48.0999 30.4165 48.3926 29.9738 48.5914 29.4872C48.7901 29.0005 48.891 28.4795 48.8882 27.9538C48.8854 27.4281 48.779 26.9082 48.5751 26.4236C48.3713 25.9391 48.0739 25.4995 47.7 25.13ZM37.8 35L35 32.2L42 25.13L44.87 28L37.8 35Z" fill="#c4d1ee" id="id_110"></path>
<path d="M50 56C53.3137 56 56 53.3137 56 50C56 46.6863 53.3137 44 50 44C46.6863 44 44 46.6863 44 50C44 53.3137 46.6863 56 50 56Z" fill="#c4d1ee" id="id_111"></path>
<path d="M25 20H9V26H25V20Z" fill="#c4d1ee" id="id_112"></path>
<path d="M13 20H9V26H13V20Z" fill="#c4d1ee" id="id_113"></path>
<path d="M30.31 38.86L27.49 41.69L29.31 43.51L27.31 45.51C27.6877 45.7105 28.1197 45.7848 28.5426 45.7218C28.9655 45.6588 29.3572 45.4619 29.66 45.16L33 41.88C32.8092 41.4349 32.5341 41.0308 32.19 40.69L30.31 38.86Z" fill="#282c34" id="id_114"></path>
<path d="M38.5 34.33L37.8 35.03L36.13 33.36C35.8259 33.4589 35.5488 33.6266 35.32 33.85L33.14 36L35 37.86C35.3461 38.1977 35.7489 38.4719 36.19 38.67L38.19 36.67C38.4832 36.3633 38.6713 35.9713 38.727 35.5506C38.7828 35.13 38.7033 34.7025 38.5 34.33Z" fill="#282c34" id="id_115"></path>
<path d="M38.1613 34.679C38.9424 33.898 38.9424 32.6317 38.1613 31.8506C37.3803 31.0696 36.1139 31.0696 35.3329 31.8506L26.8476 40.3359C26.0666 41.1169 26.0666 42.3833 26.8476 43.1643C27.6287 43.9454 28.895 43.9454 29.676 43.1643L38.1613 34.679Z" fill="#c4d1ee" id="id_116"></path>
<path d="M44.09 51C44.3336 52.3906 45.0598 53.6507 46.1407 54.5588C47.2217 55.4669 48.5882 55.9647 50 55.9647C51.4118 55.9647 52.7783 55.4669 53.8593 54.5588C54.9402 53.6507 55.6664 52.3906 55.91 51H44.09Z" fill="#c4d1ee" id="id_117"></path>
<path d="M25 47.8L22.21 50.59L19.38 47.76L21.66 45.48C20.6324 44.629 19.679 43.6923 18.81 42.68L16.56 44.93C16.1881 45.3015 15.893 45.7426 15.6917 46.2282C15.4905 46.7138 15.3868 47.2343 15.3868 47.76C15.3868 48.2857 15.4905 48.8062 15.6917 49.2918C15.893 49.7773 16.1881 50.2185 16.56 50.59L19.38 53.41C19.7515 53.7819 20.1926 54.0769 20.6782 54.2782C21.1638 54.4795 21.6843 54.5831 22.21 54.5831C22.7356 54.5831 23.2562 54.4795 23.7417 54.2782C24.2273 54.0769 24.6685 53.7819 25.04 53.41L28.86 49.59C27.5224 49.1099 26.2306 48.5108 25 47.8V47.8Z" fill="#c4d1ee" id="id_118"></path>
<path d="M52 49H51V48C51 47.7348 50.8946 47.4804 50.7071 47.2929C50.5196 47.1054 50.2652 47 50 47C49.7348 47 49.4804 47.1054 49.2929 47.2929C49.1054 47.4804 49 47.7348 49 48V49H48C47.7348 49 47.4804 49.1054 47.2929 49.2929C47.1054 49.4804 47 49.7348 47 50C47 50.2652 47.1054 50.5196 47.2929 50.7071C47.4804 50.8946 47.7348 51 48 51H49V52C49 52.2652 49.1054 52.5196 49.2929 52.7071C49.4804 52.8946 49.7348 53 50 53C50.2652 53 50.5196 52.8946 50.7071 52.7071C50.8946 52.5196 51 52.2652 51 52V51H52C52.2652 51 52.5196 50.8946 52.7071 50.7071C52.8946 50.5196 53 50.2652 53 50C53 49.7348 52.8946 49.4804 52.7071 49.2929C52.5196 49.1054 52.2652 49 52 49Z" fill="#282c34" id="id_119"></path>
<path d="M19 29H9C8.73478 29 8.48043 29.1054 8.29289 29.2929C8.10536 29.4804 8 29.7348 8 30C8 30.2652 8.10536 30.5196 8.29289 30.7071C8.48043 30.8946 8.73478 31 9 31H19C19.2652 31 19.5196 30.8946 19.7071 30.7071C19.8946 30.5196 20 30.2652 20 30C20 29.7348 19.8946 29.4804 19.7071 29.2929C19.5196 29.1054 19.2652 29 19 29Z" fill="#c4d1ee" id="id_120"></path>
<path d="M15 33H9C8.73478 33 8.48043 33.1054 8.29289 33.2929C8.10536 33.4804 8 33.7348 8 34C8 34.2652 8.10536 34.5196 8.29289 34.7071C8.48043 34.8946 8.73478 35 9 35H15C15.2652 35 15.5196 34.8946 15.7071 34.7071C15.8946 34.5196 16 34.2652 16 34C16 33.7348 15.8946 33.4804 15.7071 33.2929C15.5196 33.1054 15.2652 33 15 33Z" fill="#c4d1ee" id="id_121"></path>
<path d="M53 50C53 49.7348 52.8946 49.4804 52.7071 49.2929C52.5196 49.1054 52.2652 49 52 49H51V48C51 47.7348 50.8946 47.4804 50.7071 47.2929C50.5196 47.1054 50.2652 47 50 47C49.7348 47 49.4804 47.1054 49.2929 47.2929C49.1054 47.4804 49 47.7348 49 48V49H48C47.7348 49 47.4804 49.1054 47.2929 49.2929C47.1054 49.4804 47 49.7348 47 50C47 50.2652 47.1054 50.5196 47.2929 50.7071C47.4804 50.8946 47.7348 51 48 51H52C52.2652 51 52.5196 50.8946 52.7071 50.7071C52.8946 50.5196 53 50.2652 53 50Z" fill="#282c34" id="id_122"></path>
<path d="M20 30C20 29.7348 19.8946 29.4804 19.7071 29.2929C19.5196 29.1054 19.2652 29 19 29H13.09C13.15 29.67 13.23 30.34 13.34 31H19C19.2652 31 19.5196 30.8946 19.7071 30.7071C19.8946 30.5196 20 30.2652 20 30Z" fill="#c4d1ee" id="id_123"></path>
<path d="M16 34C16 33.7348 15.8947 33.4804 15.7071 33.2929C15.5196 33.1054 15.2652 33 15 33H13.76C13.93 33.68 14.14 34.35 14.37 35H15C15.2652 35 15.5196 34.8946 15.7071 34.7071C15.8947 34.5196 16 34.2652 16 34Z" fill="#c4d1ee" id="id_124"></path>
</svg>